<svg width="24" height="24" viewBox="0 0 24 24" fill="none" xmlns="http://www.w3.org/2000/svg">
<path d="M16.4997 10.5H14.2497C14.0508 10.5 13.8601 10.421 13.7194 10.2803C13.5787 10.1397 13.4997 9.94891 13.4997 9.75C13.4997 9.55109 13.5787 9.36032 13.7194 9.21967C13.8601 9.07902 14.0508 9 14.2497 9H16.4997C16.6986 9 16.8894 9.07902 17.0301 9.21967C17.1707 9.36032 17.2497 9.55109 17.2497 9.75C17.2497 9.94891 17.1707 10.1397 17.0301 10.2803C16.8894 10.421 16.6986 10.5 16.4997 10.5ZM9.74973 9H8.99973V8.25C8.99973 8.05109 8.92071 7.86032 8.78006 7.71967C8.63941 7.57902 8.44864 7.5 8.24973 7.5C8.05082 7.5 7.86005 7.57902 7.7194 7.71967C7.57875 7.86032 7.49973 8.05109 7.49973 8.25V9H6.74973C6.55082 9 6.36005 9.07902 6.2194 9.21967C6.07875 9.36032 5.99973 9.55109 5.99973 9.75C5.99973 9.94891 6.07875 10.1397 6.2194 10.2803C6.36005 10.421 6.55082 10.5 6.74973 10.5H7.49973V11.25C7.49973 11.4489 7.57875 11.6397 7.7194 11.7803C7.86005 11.921 8.05082 12 8.24973 12C8.44864 12 8.63941 11.921 8.78006 11.7803C8.92071 11.6397 8.99973 11.4489 8.99973 11.25V10.5H9.74973C9.94864 10.5 10.1394 10.421 10.2801 10.2803C10.4207 10.1397 10.4997 9.94891 10.4997 9.75C10.4997 9.55109 10.4207 9.36032 10.2801 9.21967C10.1394 9.07902 9.94864 9 9.74973 9ZM22.6385 18.8109C22.3558 19.2146 21.9882 19.5514 21.5615 19.7978C21.1347 20.0442 20.6592 20.1941 20.1683 20.2371C19.6774 20.2801 19.1831 20.2151 18.72 20.0466C18.2569 19.8781 17.8364 19.6103 17.4879 19.2619C17.4766 19.2506 17.4654 19.2394 17.455 19.2272L13.7322 15H10.2635L6.54442 19.2272L6.5116 19.2619C5.87804 19.8941 5.01975 20.2494 4.12473 20.25C3.63201 20.2498 3.14532 20.1418 2.69882 19.9334C2.25233 19.7251 1.85686 19.4215 1.54022 19.044C1.22357 18.6665 0.993414 18.2242 0.865921 17.7483C0.738428 17.2724 0.716688 16.7743 0.802228 16.2891C0.801777 16.2847 0.801777 16.2803 0.802228 16.2759L2.33692 8.3925C2.56532 7.09225 3.24466 5.91409 4.25556 5.06504C5.26647 4.21599 6.54426 3.75037 7.86442 3.75H16.1247C17.4409 3.7521 18.7148 4.21506 19.7252 5.05849C20.7356 5.90193 21.4187 7.07258 21.656 8.36719C21.656 8.37281 21.656 8.37844 21.656 8.38406L23.1907 16.275C23.1911 16.2794 23.1911 16.2838 23.1907 16.2881C23.2701 16.7243 23.2622 17.1718 23.1674 17.6049C23.0726 18.0379 22.8928 18.4479 22.6385 18.8109ZM16.1247 13.5C17.2187 13.5 18.268 13.0654 19.0415 12.2918C19.8151 11.5182 20.2497 10.469 20.2497 9.375C20.2497 8.28098 19.8151 7.23177 19.0415 6.45818C18.268 5.6846 17.2187 5.25 16.1247 5.25H7.86442C6.89593 5.25087 5.95878 5.59325 5.21783 6.21691C4.47688 6.84057 3.9796 7.70556 3.81348 8.65969V8.67188L2.27785 16.5553C2.20998 16.9461 2.2678 17.3484 2.44302 17.7043C2.61824 18.0602 2.90181 18.3514 3.25296 18.5359C3.60411 18.7204 4.00474 18.7889 4.39723 18.7313C4.78972 18.6738 5.15384 18.4932 5.43723 18.2156L9.36723 13.7541C9.4376 13.6742 9.52415 13.6103 9.62113 13.5665C9.71812 13.5227 9.82331 13.5 9.92973 13.5H16.1247ZM21.7216 16.5553L20.9022 12.3366C20.3983 13.1503 19.695 13.822 18.859 14.2881C18.023 14.7542 17.0819 14.9992 16.1247 15H15.731L18.5622 18.2166C18.7757 18.4242 19.0354 18.5783 19.3199 18.6661C19.6044 18.7539 19.9057 18.773 20.1991 18.7219C20.6878 18.6356 21.1224 18.3591 21.4076 17.953C21.6928 17.5469 21.8054 17.0443 21.7207 16.5553H21.7216Z" fill="#E5E5E5" fill-opacity="0.5"/>
</svg>
