<svg width="25" height="24" viewBox="0 0 25 24" fill="none" xmlns="http://www.w3.org/2000/svg">
<g clip-path="url(#clip0_13_73)">
<path d="M10.7045 9.61219C10.6733 9.51874 10.6609 9.42008 10.6678 9.32183C10.6748 9.22357 10.7011 9.12766 10.7451 9.03956C10.7892 8.95146 10.8502 8.87289 10.9246 8.80836C10.999 8.74382 11.0854 8.69458 11.1788 8.66344L12.3038 8.28844C12.4166 8.25085 12.5366 8.2406 12.6541 8.25852C12.7716 8.27645 12.8832 8.32203 12.9796 8.39152C13.076 8.46102 13.1545 8.55243 13.2086 8.65822C13.2628 8.76401 13.291 8.88116 13.291 9V12.75C13.291 12.9489 13.212 13.1397 13.0713 13.2803C12.9307 13.421 12.7399 13.5 12.541 13.5C12.3421 13.5 12.1513 13.421 12.0107 13.2803C11.87 13.1397 11.791 12.9489 11.791 12.75V10.0406L11.6532 10.0866C11.5598 10.1177 11.4611 10.1302 11.3628 10.1232C11.2646 10.1162 11.1687 10.0899 11.0806 10.0459C10.9925 10.0018 10.9139 9.94086 10.8494 9.86645C10.7848 9.79203 10.7356 9.70564 10.7045 9.61219ZM23.416 19.5C23.416 19.6989 23.337 19.8897 23.1963 20.0303C23.0557 20.171 22.8649 20.25 22.666 20.25H1.66602C1.4671 20.25 1.27634 20.171 1.13569 20.0303C0.995033 19.8897 0.916016 19.6989 0.916016 19.5C0.916016 19.3011 0.995033 19.1103 1.13569 18.9697C1.27634 18.829 1.4671 18.75 1.66602 18.75H2.41602V9.75C2.41602 9.35218 2.57405 8.97064 2.85536 8.68934C3.13666 8.40804 3.51819 8.25 3.91602 8.25H7.66602V5.25C7.66602 4.85218 7.82405 4.47064 8.10536 4.18934C8.38666 3.90804 8.76819 3.75 9.16602 3.75H15.166C15.5638 3.75 15.9454 3.90804 16.2267 4.18934C16.508 4.47064 16.666 4.85218 16.666 5.25V12H20.416C20.8138 12 21.1954 12.158 21.4767 12.4393C21.758 12.7206 21.916 13.1022 21.916 13.5V18.75H22.666C22.8649 18.75 23.0557 18.829 23.1963 18.9697C23.337 19.1103 23.416 19.3011 23.416 19.5ZM16.666 13.5V18.75H20.416V13.5H16.666ZM9.16602 18.75H15.166V5.25H9.16602V18.75ZM3.91602 18.75H7.66602V9.75H3.91602V18.75Z" fill="#F97316"/>
</g>
<defs>
<clipPath id="clip0_13_73">
<rect width="24" height="24" fill="white" transform="translate(0.166016)"/>
</clipPath>
</defs>
</svg>
